<svg height="41" viewBox="0 0 138 41" width="138" xmlns="http://www.w3.org/2000/svg"><g fill="#929dc5" fill-rule="evenodd" transform=""><path d="m85.4869731 32.0948258c-8.0367612 5.812746-19.6901557 8.9051742-29.7238644 8.9051742-14.0632741 0-26.7263271-5.0940037-36.3096193-13.5749245-.7521049-.6654142-.0810145-1.576137.8234461-1.060041 10.3390246 5.896293 23.1248086 9.4467491 36.3307798 9.4467491 8.9079696 0 18.7010531-1.81078 27.7111977-5.5573644 1.3591093-.5646836 2.4981492.878726 1.1680601 1.8404066"/><path d="m89.2270391 28.2879258c-1.0209619-1.2399759-6.7469916-.5872371-9.3189032-.2956121-.7790762.0877154-.8997189-.5564797-.19747-1.0246746 4.5676191-3.0449753 12.0510717-2.164974 12.9213801-1.1471343.8763107 1.0292312-.2292812 8.1489827-4.5099986 11.5476672-.6590336.5228746-1.2850555.2437803-.9927519-.4459812.9621411-2.2828771 3.1193057-7.3937195 2.0977436-8.634265"/><path d="m80.0579703 4.58588408v-3.12150499c.0024429-.47486789.366441-.79164684.8037274-.79164684l14.2166924-.0006011c.4549976.0006011.8196065.32579543.820828.78864135l-.0012215 2.67729312c-.0036644.44902065-.3878168 1.03509178-1.0700079 1.9655924l-7.3642442 10.34791228c2.7336504-.0637165 5.6248705.3390196 8.1081196 1.713131.5606548.3095657.7108956.768805.7548686 1.2184268v3.3312884c0 .4580371-.5099639.9900094-1.0461893.7141051-4.3759172-2.2565241-10.1827868-2.5029745-15.0210305.0270495-.4946955.2596745-1.0119881-.2644834-1.0119881-.7231217v-3.1671884c0-.506125.0097717-1.3729092.5288966-2.1453209l8.531359-12.04661687-7.4277606-.0012022c-.454387 0-.8183851-.31858225-.8220495-.78623695"/><path d="m28.2497855 23.5245902h-4.2599411c-.4048207-.0267204-.7290382-.3271758-.7621216-.711355l.0030076-21.58113049c0-.43227577.3681282-.77726509.8222733-.77726509l3.9670025-.00118757c.4150465.02078249.7482867.33133226.7747535.72501198v2.81751174h.0794002c1.0340071-2.72488122 2.9823197-3.99617577 5.6067369-3.99617577 2.6641174 0 4.3339277 1.27129455 5.5273368 3.99617577 1.0334057-2.72488122 3.3793207-3.99617577 5.8840362-3.99617577 1.7901136 0 3.7384262.72619955 4.9306322 2.36148455 1.3522095 1.81638956 1.0743088 4.44982783 1.0743088 6.76677848l-.0030076 13.61906207c0 .4304944-.3687297.7772651-.8222733.7772651h-4.2545275c-.4270768-.027908-.7645277-.3622091-.7645277-.7760776l-.001203-11.4404634c0-.9084916.0794002-3.17912701-.1191003-4.0418972-.3182023-1.45299289-1.2722078-1.86211103-2.5047155-1.86211103-1.0340071 0-2.1077144.68166564-2.5456185 1.77126186-.4373027 1.09019-.3970011 2.90598577-.3970011 4.13274637v11.4392759c0 .4304944-.3681282.7772651-.8216717.7772651h-4.255129c-.4270769-.027908-.7645277-.3622091-.7645277-.7760776l-.0042107-11.4404634c0-2.4066122.3976026-5.94913592-2.6238157-5.94913592-3.0623214 0-2.9426196 3.45108077-2.9426196 5.94913592l-.0018046 11.4392759c.0006015.4304944-.3681282.7772651-.8216718.7772651"/><path d="m107.218424 4.32184173c-3.110016 0-3.306513 4.14300287-3.306513 6.72713687 0 2.5841339-.038704 8.1089145 3.267214 8.1089145 3.267213 0 3.424411-4.4552427 3.424411-7.1727776 0-1.7825631-.079194-3.92163886-.629386-5.61449128-.472785-1.46974075-1.417758-2.04878249-2.755726-2.04878249zm-.039299-4.32184173c6.258736 0 9.642657 5.25739609 9.642657 11.9402601 0 6.4603349-3.738212 11.5843301-9.642657 11.5843301-6.140243 0-9.4860557-5.2573961-9.4860557-11.8074417 0-6.59373591 3.3851127-11.7171485 9.4860557-11.7171485z"/><path d="m125.328727 23.5245902h-4.307622c-.433571-.027908-.776764-.3622091-.776764-.7760776l-.006717-21.58944349c.03664-.39427351.395099-.70422949.831113-.70422949l4.01145-.00118757c.37739.01840735.688829.26957857.768215.60506733v3.30025928h.081829c1.210946-2.95111347 2.906149-4.35897866 5.892295-4.35897866 1.937636 0 3.835579.68107186 5.046525 2.54318289 1.130949 1.72554038 1.130949 4.63211994 1.130949 6.72105699v13.58046602c-.048853.3829916-.401817.6798843-.828671.6798843h-4.335712c-.400596-.0255328-.723026-.3123312-.770047-.6798843v-11.718355c0-2.36207833.282737-5.8131591-2.70463-5.8131591-1.050342 0-2.018854.68107186-2.5025 1.72554039-.605778 1.31701603-.686997 2.63403205-.686997 4.08761871v11.6209742c-.007328.4304944-.381054.7772651-.842716.7772651"/><path d="m72.9761856 23.1793241c-.2845437.2441275-.6925915.260984-1.01346.0964885-1.4233239-1.1369366-1.6788079-1.6618107-2.4567625-2.7441092-2.3538424 2.3023547-4.0205421 2.9928868-7.0687923 2.9928868-3.6094672 0-6.4173688-2.1390219-6.4173688-6.4153218 0-3.3422216 1.8852534-5.614351 4.5720726-6.7286187 2.3265989-.97999748 5.5752405-1.15786179 8.0616682-1.42523952v-.53475546c0-.97999751.0799144-2.13844058-.5212599-2.98474922-.5212598-.75795774-1.5244278-1.06951092-2.4071187-1.06951092-1.6346128 0-3.0882074.80445821-3.4454005 2.47208148-.0744657.37026003-.3559824.73703253-.744657.75621397l-4.155549-.43187315c-.3511391-.07614453-.7410245-.34584729-.6399207-.86025879.9553404-4.84011816 5.5074344-6.30255809 9.5879123-6.30255809 2.0856449 0 4.8130266.53475546 6.4573261 2.04950842 2.0856448 1.87106286 1.884648 4.36639458 1.884648 7.08434733v6.41299675c0 1.9286072.8348634 2.7749158 1.6188721 3.8147827.2730409.3743288.3347929.8195708-.0145299 1.0927611-.8760314.7050635-2.4319406 2.003008-3.2879934 2.7342279zm-4.3226428-10.0359649c0 1.6042664.0399572 2.9405738-.8021711 4.3663946-.6822995 1.1590243-1.7647764 1.8710628-2.9677304 1.8710628-1.6449048 0-2.6075101-1.203781-2.6075101-2.9847492 0-3.5055545 3.2752797-4.1437736 6.3774116-4.1437736z"/><path d="m16.9564394 23.1793241c-.2839393.2441275-.6931992.260984-1.0128579.0964885-1.4245395-1.1369366-1.6794188-1.6618107-2.4579814-2.7441092-2.3532448 2.3023547-4.02055536 2.9928868-7.06821017 2.9928868-3.61008454 0-6.41738993-2.1390219-6.41738993-6.4153218 0-3.3422216 1.88525965-5.614351 4.57208762-6.7286187 2.32600115-.97999748 5.57525888-1.15786179 8.06169478-1.42523952v-.53475546c0-.97999751.0799146-2.13844058-.5212616-2.98474922-.521867-.75795774-1.5244328-1.06951092-2.40652123-1.06951092-1.63522361 0-3.08942838.80445821-3.44601731 2.47208148-.07446594.37026003-.35598352.73703253-.7446594.75621397l-4.15556269-.43187315c-.3511402-.07614453-.74163233-.34584729-.63992275-.86025879.9547381-4.84011816 5.50745247-6.30255809 9.58794378-6.30255809 2.0850463 0 4.8124371.53475546 6.4573473 2.04950842 2.0850463 1.87106286 1.8846542 4.36639458 1.8846542 7.08434733v6.41299675c0 1.9286072.8342607 2.7749158 1.618272 3.8147827.2736472.3743288.3353995.8195708-.0139245 1.0927611-.8754288.7050635-2.4319486 2.003008-3.2880042 2.7342279zm-4.322657-10.0359649c0 1.6042664.0399573 2.9405738-.8021738 4.3663946-.6816963 1.1590243-1.7647822 1.8710628-2.96834552 1.8710628-1.6436994 0-2.60630789-1.203781-2.60630789-2.9847492 0-3.5055545 3.27529052-4.1437736 6.37682721-4.1437736z"/></g></svg>