<svg height="29" viewBox="0 0 153 29" width="153" xmlns="http://www.w3.org/2000/svg"><g fill="none" fill-rule="evenodd" transform=""><path d="m4.98983417 0h19.25574013c1.2681784.12679556 2.4887451.68382154 3.3869035 1.58450721.8273285.82460833 1.3851507 1.91563306 1.5453262 3.07049281.0837615.59491891.0576044 1.19654195.0605434 1.79583313-.0008817 2.66941078.002939 5.33823855-.0014695 8.00706635.0096987.8639587-.4352659 1.7185899-1.1661952 2.1916685-.9025669.6097846-2.1910245.5651875-3.0483307-.1081406-.4734729-.3561935-.8143969-.8843625-.9428312-1.459752-.1184417-.501644-.0667153-1.0207771-.126377-1.5288338-.2260091-2.3283744-1.3898531-4.54685942-3.1717688-6.07627614-1.6934518-1.48190483-3.9444319-2.318464-6.2021717-2.29631122-1.9520838-.00816155-3.894175.63135442-5.47094845 1.76814215-1.87420029 1.3382032-3.22085009 3.38471261-3.68697548 5.62826521-.3365155 1.5830498-.2504028 3.2526703.2571625 4.7893742.70300879 2.1601881 2.23628508 4.0411346 4.21746497 5.1773394 1.17030976.6823641 2.49432926 1.0977288 3.84391806 1.2239414.4869923.0489693.9836833.0029149 1.4645037.1142618.6695042.1454505 1.2714114.5756809 1.6302633 1.1539852.4279184.6838216.5093287 1.5681841.208669 2.3172981-.3723713.9910457-1.4080749 1.6672887-2.4702295 1.6451359-2.9960166.0043723-5.99056365 0-8.98628633.0014574-.828798 0-1.66112279-.1512802-2.41262509-.5042674-1.75987319-.7878813-3.00307018-2.5487364-3.17411998-4.4535845v-19.09132976c.123438-1.23793269.6580421-2.43942987 1.54885299-3.32146056.8996279-.93449781 2.14929069-1.50347465 3.44098118-1.62881278" fill="#929dc5"/><path d="m13.3865628 8.15814572c1.2269466-.17892236 2.5139256.01077504 3.6225227.56994287 1.3501558.65529252 2.4333107 1.83118961 2.9738875 3.22315451.5257118 1.3233449.5528693 2.8307162.0900485 4.1756113-.4531012 1.3378061-1.4018979 2.502361-2.6202685 3.2282584-1.2366661.7559541-2.7549124 1.0332696-4.1833962.7936667-1.4956627-.2396028-2.8878412-1.0607742-3.81405436-2.2497147-.72896407-.9252356-1.18349461-2.0651214-1.27297138-3.2370487-.13235701-1.5022673.3278909-3.0465005 1.26782576-4.2317549.95022608-1.22381758 2.39471848-2.05576403 3.93640598-2.27211548" fill="#929dc5"/><path d="m21.4018545 19.5827852c.8413717-.116962 1.7274284.1882449 2.3183289.790803.8887025.8868167 1.0165839 2.395976.284279 3.4160479-.6702752.9979597-2.0558045 1.4274024-3.1861588.9979597-.8684179-.3078255-1.5469245-1.0823353-1.7265465-1.9781714-.1240597-.6543473-.028516-1.3622294.3236724-1.9368563.4159821-.6988627 1.1700417-1.1934783 1.986425-1.2897829" fill="#929dc5"/><path d="m25.5077891 24.2831163c.55233-.126309 1.1642682-.023412 1.6199918.3150498.60078.4219934.9123282 1.2061495.75905 1.9166013-.0977809.5280698-.4363436 1.0046911-.9032254 1.2784087-.6398337.379505-1.5048864.3589834-2.1168246-.0661894-.62985-.4162126-.9543182-1.2194452-.8019209-1.9478173.1292-.7191229.7188218-1.3339036 1.4429291-1.4960531" fill="#929dc5"/><path d="m150.976845 6.42383721c-.672427.11330232-1.18629.76132226-1.156927 1.42899668-.002936.50234551.299509.98185714.7429 1.22551495.331809.18671761.748773.21533222 1.109946.10058471.593145-.19336544 1.010109-.80034219.971936-1.41425581-.008809-.5156412-.337682-1.00035548-.804564-1.22840531-.264272-.12919934-.575527-.16532891-.863291-.11243522zm-.046981-.17428904c.428709-.07659468.895591.00722592 1.247954.26620266.255464.19278738.475691.44627243.584337.74947176.170309.47344186.12039 1.03561794-.176182 1.45240864-.182055.25897674-.437518.4737309-.737028.59541528-.296572.1202392-.631318.1352691-.945509.08208638-.739963-.13613621-1.330172-.83907309-1.297872-1.58478738-.014682-.7442691.5814-1.4402691 1.3243-1.56079734z" fill="#9cb9e2"/><g fill="#929dc5"><path d="m37.3086201 8.08230467c.9640274-.42196323 2.0220359-.53787108 3.0592879-.61445828 1.3036279-.0710119 2.6259944-.10035565 3.9114604.16197754.7394528.15669566 1.5331033.46744605 1.9234421 1.1714028.567058 1.02527088.5898326 2.24479747.5955983 3.39155147-.873794.0029344-1.7472996.0014672-2.6202287 0 .0028828-.6264892.032288-1.3008088-.28252-1.8630351-.2121783-.37266577-.6587328-.4650986-1.0415762-.53669737-.7403177-.10710472-1.4938965-.11884222-2.2405565-.07629377-.6177963.04196157-1.2618265.08069533-1.8303259.35916764-.3153846.1464253-.4577977.493562-.5310223.817517-.1894037.8004977-.2041063 1.6300458-.2303403 2.4493235-.0031711 1.4038053-.0057657 2.8120122.1657643 4.2070145.0712066.3999554.1020532.8451002.3710237 1.1661209.3785191.3571135.9170368.446612 1.4100054.5182108.9294331.1062244 1.8744336.1018228 2.8047316-.0178997.4511671-.0789347.9850722-.1745954 1.2410699-.6121108.3669877-.6420414.3081774-1.4187707.290592-2.1327043.8686048.0073359 1.7369213.0073359 2.606391 0 .0270989 1.0214562.0051891 2.0640399-.29261 3.0482295-.1585571.5164502-.429834 1.0258578-.8899379 1.3245772-.4929686.3133914-1.0709814.4433842-1.6357331.5463808-1.1496834.1927885-2.319835.2033522-3.480185.1839854-.9994865-.0404944-2.0125225-.1182554-2.9690544-.4345811-.5898325-.2048194-1.2001334-.5320023-1.4846714-1.1262134-.3029882-.6244352-.4292574-1.3172413-.5318871-1.9983099-.1994937-1.4126085-.2392771-2.8401823-.266376-4.263648-.0051891-1.4005775-.008072-2.8536804.5215089-4.17004133.2591688-.66551641.7682814-1.23067718 1.4261493-1.499466"/><path d="m68.8659493 7.96619337c.8477129-.30752779 1.75021-.42197038 2.6443453-.48975561 1.1248055-.07159998 2.2591262-.09624915 3.3810483.04196229.918644.12911472 1.9831869.3462622 2.5292986 1.19313739.6383797 1.03409153.6222328 2.30528466.6617351 3.48257616-.8745283 0-1.7490567-.0014672-2.6215667 0-.0031717-.6047851.0175886-1.243903-.2537372-1.7996832-.1381137-.2998982-.4469235-.45747689-.7493897-.53142441-.6441465-.15845897-1.3133784-.16579504-1.9728068-.16960979-.7733218.02934425-1.571729.0372672-2.3041068.3219065-.3016013.1097475-.520738.3756064-.6037793.686949-.2176949.7468113-.2413386 1.5338242-.2750742 2.308219-.00519 1.3956128-.0242203 2.7918124.1144701 4.1836104.0527658.4345884.0954398.881208.2632524 1.2890931.1695426.380595.5893623.5328917.9561279.6376507.8131124.2030622 1.659672.1939655 2.4918147.1760655.589939-.0387344 1.204675-.0598623 1.7513634-.3136901.4232798-.1986606.5928224-.6913506.6611584-1.1288734.083618-.4571835.0328705-.9214096.0469991-1.3829948.8693382.010564 1.7395415.0029345 2.6111865.0029345.0086501.9513407-.0072085 1.917647-.2465288 2.8437517-.1525306.5569539-.396176 1.1350358-.8774117 1.4783635-.4991126.3436213-1.0991435.485354-1.6847574.5912868-1.1723812.1957261-2.3640811.2062901-3.5482841.1869229-1.0221573-.046364-2.0624798-.1241262-3.0347547-.4765507-.5458233-.2001278-1.1002968-.521154-1.3684509-1.0693047-.3240916-.6540834-.4446168-1.3873963-.5521667-2.1057437-.2127933-1.6262586-.2548906-3.2707106-.2439337-4.9090003-.0144169-.8459949.047864-1.6943373.2269217-2.5206715.1392672-.62738018.3710907-1.25094559.7851437-1.74657005.3160182-.37736712.7606349-.61094739 1.2118835-.78055718"/><path d="m49.6419821 8.09444518c.8545522.00170631 1.7076886.00597208 2.5636566-.00142192.0116092 3.72544114.003681 7.45287304.0022652 11.17859854 2.0907931.0145037 4.1818693 0 6.2720961.0071096-.0014158.7672703-.0014158 1.5342562 0 2.3026639-2.9467611 0-5.8923895 0-8.84 0 .0019821-4.4952708-.0022652-8.9913949.0019821-13.48695012"/><path d="m61.2014968 8.09302326c.9046709.00142225 1.8114374-.00170671 2.7179045.00256005.0005987 4.49375359-.0014968 8.98949839.0005987 13.48581199-.9070658 0-1.8138323 0-2.72 0 .0020955-4.4963136 0-8.9920584.0014968-13.48837204"/><path d="m80.930284 8.09302326c.8718975.01307894 1.7437951.00426487 2.6185864.00597082.0014469 1.82735597-.0014469 3.65442762.0014469 5.48036202h1.2104705c1.5186586-1.8259344 3.0355809-3.65300605 4.5525032-5.4778031 1.0897996-.00255892 2.1795992-.00426487 3.266505 0-1.8378431 2.1873113-3.6968109 4.359269-5.5332071 6.5502765 2.0427231 2.3050217 4.0767649 4.617436 6.1134111 6.9295658-1.1236569 0-2.2458669 0-3.3695238-.0028432-1.6731867-1.9447821-3.3431903-3.8909859-5.0175346-5.8343464-.4083131 0-.8174943-.0014217-1.2240712 0v5.8371896c-.8747913 0-1.7524765 0-2.6275572 0 .006077-4.4971665-.0115751-8.9923428.0089708-13.48837204"/><path d="m122.410852 8.09381665c.821476.00881541 1.645804-.00938415 2.470132.00739357.259563.29887086.427852.68163032.656039 1.01149731 1.822649 2.97050907 3.665264 5.93305587 5.476504 8.91152737.484899.7655189.929865 1.5586215 1.429025 2.3139031-.04849-1.9954109-.011409-3.9899687-.022819-5.985664-.005704-2.0795838.01141-4.1594521-.008557-6.2404578.513423-.03639911 1.029697-.0079623 1.545972-.0150715.002852 4.4935846-.002853 8.9866005.002852 13.481607-.841442.0059717-1.680032 0-2.521474.0028436-1.779863-2.8681365-3.548318-5.7396856-5.325329-8.6072534-.74161-1.1761465-1.43473-2.3815828-2.187749-3.54806073.022819 4.05224533.002852 8.10306883.011409 12.15531413-.513422 0-1.023992 0-1.534562 0 .002853-4.4950064-.011409-8.9922878.008557-13.48757865"/><path d="m137.36 8.10183438c.52653-.00596882 1.05306.0056846 1.582549-.00881112.02958 1.95351244.011832 3.90844604.005916 5.86337954.455537.0400765.91699.00739 1.372528.0204646 1.907932-1.956639 3.830655-3.9021929 5.726755-5.86934842.695138-.01449572 1.393235-.0056846 2.085415-.00426345-2.106121 2.18487557-4.265486 4.32285327-6.383439 6.50005467.532446.5610699 1.109263 1.0832003 1.665373 1.6243742 1.831024 1.7878063 3.676837 3.5585589 5.504903 5.3492076-.739509.0059688-1.479017.0059688-2.218526 0-2.117953-2.1047228-4.256612-4.1904021-6.383439-6.2837557-.45258-.0056846-.908117-.0028423-1.360696-.0028423 0 2.0930693-.008874 4.1861387.005916 6.2780711-.535404.0230226-1.070809.0085269-1.603255.0085269.002958-4.4928228 0-8.983656 0-13.47505762"/><path d="m110.591949 17.5426056c1.978509.0073923 3.957019-.0028433 5.935528.0042648-.976191-2.7172625-1.990281-5.4245738-2.982551-8.13870878-1.000882 2.70617398-1.977073 5.41974028-2.952977 8.13444398zm1.823467-9.43805899c.724678-.02103981 1.451079-.00597076 2.180351-.01023558 1.699147 4.49455747 3.390254 8.98968357 5.084233 13.48395677-.542647 0-1.082424-.0028432-1.627942.0031275-.356023-.9493501-.712045-1.9015435-1.053712-2.8565801-2.285723-.0116572-4.572594-.0028432-6.858029-.0056864-.353726.953615-.693957 1.9086516-1.050554 2.859139-.549538-.0028432-1.098789 0-1.649763 0 1.65407-4.4942732 3.328811-8.9800167 4.975416-13.47372119z"/><path d="m97.5046568 15.3206545c-.0333507 1.6468572-.0062533 3.2948518-.0151865 4.9473958 1.621679-.0028434 3.2430607.0031276 4.8647397-.0028434.725973-.0332669 1.500187-.0244526 2.159459-.3588283.625922-.3864087.660761-1.1808354.701854-1.8203005-.009231-.6829681-.001786-1.4051741-.312365-2.0375309-.130425-.3067954-.463635-.4500993-.778978-.5208982-.715254-.1649132-1.454627-.1737275-2.188343-.1996019-1.476068-.0088143-2.9551128.0056867-4.4311802-.0073926zm-.0122088-5.91128497c-.0074443 1.49132707 0 2.98151677-.0029777 4.47227517-.0544927.1873755.183429.1194199.2894367.1353426.8867719-.005971 1.7744372-.001706 2.661209-.0031277 1.104743-.0164913 2.23837.0801819 3.311251-.2234858.379067-.0998009.684881-.3818593.80935-.7372757.253109-.7040087.249833-1.4708551.17271-2.2047188-.060449-.4591979-.221247-1.00852947-.724485-1.19021831-.763494-.27637177-1.60024-.24310479-2.403337-.24879146-1.373038 0-2.7430972 0-4.113157 0zm-1.6094703-1.31305021c1.5475333-.00312766 3.0947687 0 4.6405153-.001706 1.124396.01023599 2.255045-.04492462 3.371997.10918391.534802.08473126 1.095809.1984645 1.54128.5103779.505918.38185934.680116 1.01279447.784933 1.59397127.107496.7748077.165265 1.5729307-.001489 2.3454637-.131914.5507532-.416884 1.0875741-.886474 1.4412844-.239411.1902189-.529145.3039521-.803395.4355983.648552.1404606 1.270007.476258 1.645798 1.0142162.50175.690645.600016 1.5661066.581851 2.3849859-.036328.8711966-.137571 1.7972695-.666716 2.5353982-.445471.6192775-1.231893.9058852-1.979306 1.0216088-.883497.1489905-1.780393.0722206-2.670143.0924082-1.8548363-.0028433-3.7066949.0031277-5.561829-.0028433.0062533-4.4944531 0-8.9854943.0029777-13.47994748z"/></g></g></svg>