<svg height="32" viewBox="0 0 40 32" width="40" xmlns="http://www.w3.org/2000/svg"><path d="m532.6 86.8h-35.2c-1.324899.001411-2.398589 1.0751015-2.4 2.4v25.6c.001411 1.324899 1.075101 2.398589 2.4 2.4h4l4.08-5.44c.453251-.604334 1.164582-.96 1.92-.96h15.2c.755418 0 1.466749.355666 1.92.96l4.08 5.44h4c1.324899-.001411 2.398589-1.075101 2.4-2.4v-25.6c-.001411-1.3248985-1.075101-2.398589-2.4-2.4zm-30.4 20.8h-3.2c-.441828 0-.8-.358172-.8-.8s.358172-.8.8-.8h3.2c.441828 0 .8.358172.8.8s-.358172.8-.8.8zm0-6.4h-3.2c-.441828 0-.8-.358172-.8-.8 0-.4418278.358172-.8.8-.8h3.2c.441828 0 .8.3581722.8.8 0 .441828-.358172.8-.8.8zm0-6.4h-3.2c-.441828 0-.8-.3581722-.8-.8s.358172-.8.8-.8h3.2c.441828 0 .8.3581722.8.8s-.358172.8-.8.8zm21.6 11.2c0 .883656-.716344 1.6-1.6 1.6h-14.4c-.883656 0-1.6-.716344-1.6-1.6v-11.2c0-.8836556.716344-1.6 1.6-1.6h14.4c.883656 0 1.6.7163444 1.6 1.6zm7.2 1.6h-3.2c-.441828 0-.8-.358172-.8-.8s.358172-.8.8-.8h3.2c.441828 0 .8.358172.8.8s-.358172.8-.8.8zm0-6.4h-3.2c-.441828 0-.8-.358172-.8-.8 0-.4418278.358172-.8.8-.8h3.2c.441828 0 .8.3581722.8.8 0 .441828-.358172.8-.8.8zm0-6.4h-3.2c-.441828 0-.8-.3581722-.8-.8s.358172-.8.8-.8h3.2c.441828 0 .8.3581722.8.8s-.358172.8-.8.8zm-7.76 17.92 2.16 2.88h-20.8l2.16-2.88c.15143-.201029.388319-.319474.64-.32h15.2c.251681.000526.48857.118971.64.32z" fill="#1fdb84" transform="translate(-495 -86)"/></svg>