<svg height="44" viewBox="0 0 89 44" width="89" xmlns="http://www.w3.org/2000/svg"><g fill="#929dc5" fill-rule="evenodd" transform=""><path d="m.82301327 1.34268924c-.02028835-.46191257.15590002-.83640772.77869923-.83640772s6.94102113.19807572 11.1898305.19807572c8.8094187 0 10.9226114-.70435724 12.4354289-.70435724.8454372.02192038 1.0234943.66025238 1.0234943 1.03448343 0 .37423104-.4004281 1.1665339-.4004281 2.20075322 0 1.03448343.2445281 2.13499209.2445281 3.03716094 0 .90243295-.7784323 1.21037466-1.2010175 1.21037466-.4228521 0-.6887363-.15423495-.7122281-.92435333-.0443141-1.47447561 1.0456513-3.6092036-9.6545891-3.6092036-5.45036066 0-5.5838367.61641162-5.5838367 2.3328037 0 1.71665619.044581 7.39482668.044581 8.27507508 0 .8805126.26695208 1.1446136.97891329 1.1446136h7.80834841c1.5128175 0 3.047525-.8142233 3.2255821-2.9270309.066738-1.122429.3780041-1.1665339.9343322-1.1665339.5560612 0 1.0678084.4402563.9789133 1.496396-.089162 1.0566679-.311533 2.1790969-.311533 3.6974133 0 1.5188446.311533 3.0155047.311533 4.1154851 0 1.1007728-1.4685034 1.3646097-1.7573455.1764195-.2893761-1.1884543-.7122282-3.1913959-4.1380243-3.1913959s-6.1842119 0-6.9407541 0c-.7562753 0-1.1345464.4183359-1.1345464 1.6506309v8.7816208c0 1.5183163.46716614 3.1470269 3.5816961 3.1470269 3.114263 0 8.7648378.3301262 11.3454636-1.6728154 1.1121223-.902433 1.4460794-2.1566484 1.8240835-4.2034308.1780571-.9462737 2.2469357-.9243533 2.1580407 1.2544795-.067005 1.0125631-1.04752 3.186378-1.04752 4.5813592 0 1.166798.2696216 2.7278988-.8211446 2.7278988-.9217855 0-.5341711-.4648177-4.5827664-.4648177-4.0488623 0-18.01926566.0882097-20.35509639.0882097-.86759427 0-1.04565131-.2421806-1.04565131-.7703825 0-.5279378.31153308-.9243533 1.04565131-.9243533s3.84838124.0438408 3.84838124-3.8733045c0-3.9176736 0-18.24515016 0-20.35795777s-.46716615-4.22535112-3.09210599-4.48971617c-1.02322733-.08794562-.95648931-.5282019-.97891329-1.03421932"/><path d="m29.2137405 13.5513826c0-.6548804.3500794-.9316126 1.1373646-1.1936696 1.4871818-.5676154 3.1929663-2.2274844 4.6360601-6.15833919.4592497-1.24477069 2.0338201-.91719946 1.8369988.34932196-.1965589 1.26678348-.4810313 3.60328363-.4810313 4.93558133h6.3421071c.6342894 0 .7434596.7644202.7434596 1.3757992 0 .6113789-.1750397 1.1137422-.7214156 1.1137422-.5907263 0-6.3641511 0-6.3641511 0v10.9623679c0 3.9528676 1.3559675 4.870067 3.1711848 4.870067 1.0497136 0 1.9023434-.4150982 2.689891-.9607009.5248568-.3933475 1.7057846.5456027 1.1153207 1.3100229s-2.6681095 3.0136554-5.6422105 3.0136554c-2.9743635 0-5.1173538-2.2054716-5.0735282-5.8960202.0435631-3.6908106.1965589-9.8491498.1965589-10.700835 0-.8516853-1.1150583-2.0526924-2.3618556-2.0526924-1.0276696-.0217508-1.2247533-.5605399-1.2247533-.9683006"/><path d="m55.2209598 10.96484c2.0964126 0 3.7247254.7373889 4.4160358.7373889.6913103 0 .9589488-.8714597 1.7171688-.8714597.7584876 0 .9367348.8714597.7362736 1.6088487-.2009966.737389-.3345482 2.4803084-.2456922 4.4243338.0224816.6703536-.5127954 1.0725658-1.0480725 1.0725658-.535277 0-.7360059-.2233618-.9592165-1.2514161-.2226752-1.0277862-1.1371961-3.5080945-4.7503163-3.5080945-2.6097433 0-3.6131202 1.7429194-3.6131202 2.8825205s.6104835 2.2290598 3.3899097 3.4410592c2.9218098 1.2736718 8.3192761 2.6369029 8.3192761 7.8208815-.1785149 4.8713256-4.9960085 6.4131389-7.828427 6.4131389-2.3865328 0-4.6167647-.7151332-5.5981952-.7151332s-1.3604067.82668-1.985075.82668c-.6244007 0-1.0705541-.714865-.8251296-1.4525222.2451569-.7373889.5574911-1.2959276.5574911-2.0333165 0-.737389-.4236718-2.4580527-.1785149-3.888051.2456921-1.4299983 2.1635899-1.6311044 2.1413759-.2456175-.022214 1.3854868.6021867 5.340305 5.5981951 5.340305 4.036792 0 4.5051594-2.8154852 4.5051594-3.6199095 0-.9832747-.2009965-2.3910173-5.0407041-4.3125189-4.8397075-1.9217697-6.7131773-3.7094687-6.7131773-6.7705715 0-3.0611027 2.721081-5.8991117 7.4047553-5.8991117"/><path d="m64.5419847 12.2376003c0-.4644869.0218096-.6855827.5473416-.6855827s3.3066472.0883853 4.7734069.0883853c1.4672853 0 4.1608994-.0883853 4.7079782-.0883853.3944118 0 .2848383.4865169.2848383.8185587 0 .3315109.0436192.8846485-.6569149.8846485-.7007969 0-2.0143641.2431257-2.0143641 1.4154906 0 1.1720996.3090128 1.4988329.7662256 2.7648915.5037224 1.3934607 4.1385643 9.8203149 4.1385643 9.8203149s2.846544-5.9056192 3.7005334-7.5642356c.8539895-1.6588818 1.3795215-3.7381906 1.3795215-4.6671645 0-.9289738-.9414906-1.5482012-1.7300513-1.7029417-.788298-.1550059-1.1821842-.1106806-1.1821842-1.0616843 0-.4867823.0875011-.7522034.4816501-.7522034s2.7590428.1547405 4.5106409.1547405c1.7521236 0 3.7882973-.1104152 4.3577112-.1104152.5255319 0 .3723394.442457.3723394.8185587 0 .3758362-.043882.7516725-.5037224.8182932-.4598405.0663553-2.4960142-.0222954-4.6202144 4.5341885-2.1239375 4.5562184-6.328456 13.7355413-9.3718117 19.7075159-1.5768587 3.1407277-4.5547856 6.5691719-7.6640956 6.5691719-1.6204778.02203-2.2555832-1.3934607-2.2555832-2.1013387 0-.7078781.394149-1.8579477 2.2335109-1.8579477 1.2260661 0 1.5547863.5971975 2.1457471.5971975 1.2263288 0 4.3359015-3.0082826 5.2117005-8.4048242.131383-1.2387203-1.1293682-4.2724833-1.620215-5.6404636-.7299639-2.0347181-2.9487599-7.9329055-4.5547857-11.4348714-.5481298-1.1967837-1.9925544-1.8138877-2.9122354-1.9245683-.4380309-.0883852-.525532-.2431257-.525532-.9953291"/></g></svg>