<svg height="26" viewBox="0 0 39 26" width="39" xmlns="http://www.w3.org/2000/svg"><path d="m935 102c-.009721.828409-.191712 1.645732-.5344 2.4h-37.3312c-.712503-1.520678-.712503-3.279322 0-4.8h37.3312c.342688.754268.524679 1.571591.5344 2.4zm-36.92384 4h35.44768c-2.89408 3.75776-9.73744 6.4-17.72384 6.4-1.976425.002435-3.949364-.165924-5.8968-.5032l-2.1032 2.1032h-10.4c-.441828 0-.8-.358172-.8-.8s.358172-.8.8-.8h2.4l2.13904-3.20864c-1.485981-.797898-2.798942-1.882614-3.86288-3.19136zm5.3008 3.9192-1.65392 2.4808h5.41424l.89456-.89456c-1.599608-.375803-3.158648-.907076-4.65488-1.58624zm19.62304 4.0808h-6.4c-.441828 0-.8.358172-.8.8s.358172.8.8.8h6.4c.441828 0 .8-.358172.8-.8s-.358172-.8-.8-.8zm-26.4-23.2c0-.4418278.358172-.8.8-.8h10.4l2.1032 2.1032c1.947436-.3372758 3.920375-.5056354 5.8968-.5032 7.9864 0 14.82976 2.64224 17.72384 6.4h-35.44768c1.063938-1.3087458 2.376899-2.3934624 3.86288-3.19136l-2.13904-3.20864h-2.4c-.441828 0-.8-.3581722-.8-.8zm5.12304.8 1.65392 2.4808c1.496226-.6792184 3.055267-1.2105451 4.65488-1.5864l-.89456-.8944z" fill="#1fdb84" transform="translate(-896 -90)"/></svg>