<svg height="27" viewBox="0 0 227 27" width="227" xmlns="http://www.w3.org/2000/svg"><g fill="#929dc5" fill-rule="evenodd" transform=""><path d="m68.311644 9.36267501 4.7195231-6.90510916c.8921945-1.29993068 2.0439188-1.95113216 3.4561521-1.95113216 1.1522139 0 2.1491997.41336707 2.9919367 1.2381234.8422473.8262397 1.2633709 1.81416724 1.2633709 2.96477153 0 .85096261-.2228038 1.6015502-.668901 2.25225723l-4.2553077 6.24747975 5.2028359 6.6608468c.5200387.6630684.7805478 1.4388734.7805478 2.3264259 0 1.1763161-.4088817 2.1859998-1.2261554 3.0305345-.8182531.8445346-1.8093627 1.2663075-2.9733289 1.2663075-1.2761026 0-2.2481148-.4188061-2.9175055-1.2574073l-6.373168-8.0300016v4.4278735c0 1.2638352-.2169276 2.2453348-.6502933 2.9459821-.7932794 1.2757022-1.9450037 1.9135533-3.456152 1.9135533-1.3750178 0-2.4405585-.4687464-3.1961327-1.4072281-.7061167-.8633241-1.059175-2.0075004-1.059175-3.4335179v-16.41799104c0-1.35036542.3589345-2.46339089 1.0777827-3.33907641.7555742-.92562581 1.7961414-1.38893316 3.1217016-1.38893316 1.2638606 0 2.3161801.46330735 3.1589171 1.38893316.4705812.51324764.7678162 1.03193432.8917049 1.55754342.0744311.32485905.1116467.93106484.1116467 1.81960627zm-21.4621266-9.36256655c3.084486-.01236146 5.9207049 1.03193432 8.5101257 3.13338179 2.0316768 1.65099602 3.0472704 3.35885474 3.0472704 5.12209278 0 1.50068073-.6194435 2.66463537-1.8578409 3.48988617-.7061166.4761633-1.4749122.7130088-2.3039382.7130088-.6816327 0-1.331926-.1626768-1.9513695-.4875358-.2600194-.1374594-.9044365-.769377-1.9327617-1.8952584-.9538941-1.05072376-2.1491997-1.57682732-3.5859169-1.57682732-1.3872597 0-2.5487775.48555798-3.4840638 1.45469611-.9352863.96963261-1.4029294 2.15435451-1.4029294 3.55564911 0 1.3889332.4676431 2.5677216 1.4029294 3.5373542s2.0904383 1.4537072 3.465456 1.4537072c1.1394823 0 2.1986572-.3876553 3.1775249-1.1629658.6067119-.5879108 1.2080373-1.1753272 1.8025072-1.7642269.6439274-.563188 1.4612012-.8445347 2.4523108-.8445347 1.1399719 0 2.1281435.4039724 2.964025 1.2109282.8358815.8059669 1.2540671 1.7854887 1.2540671 2.936093 0 1.5634769-.9103127 3.1457432-2.7314277 4.7463045-2.5517155 2.2517628-5.5000708 3.3781386-8.8450658 3.3781386-2.0684028 0-4.0197723-.4445179-5.8526395-1.3325649-2.3166699-1.1258814-4.1593307-2.7798442-5.5279826-4.9628773-1.3691416-2.1820441-2.0532227-4.5682995-2.0532227-7.1577773 0-3.87704693 1.4244753-7.17953344 4.2739155-9.90647057 2.5140103-2.40207807 5.5740123-3.6149841 9.1790267-3.64020147zm-15.0473359 5.74164894v15.8918875c0 1.3760772-.3530584 2.5078921-1.059175 3.3959391-.7555742.9760605-1.8025072 1.4635963-3.1403093 1.4635963-1.2266451 0-2.2608465-.4563849-3.1030938-1.3691548-.7061166-.7634435-1.059175-1.9269037-1.059175-3.4903806v-15.8918875c0-1.77609395.3530584-3.06465209 1.059175-3.86567442.8050317-.91326435 1.8397228-1.36964929 3.1030938-1.36964929 1.2633709 0 2.2975723.4509459 3.1030937 1.35184879.7306006.82475632 1.0963906 2.11974242 1.0963906 3.88347492zm-23.44091815 3.62091761 4.72001275-6.90510916c.8917049-1.29993068 2.0434291-1.95113216 3.4561521-1.95113216 1.1522139 0 2.14871.41336707 2.991447 1.2381234.8422473.8262397 1.2638606 1.81416724 1.2638606 2.96477153 0 .85096261-.2232934 1.6015502-.6693907 2.25225723l-4.254818 6.24747975 5.2028359 6.6608468c.5200388.6630684.7800581 1.4388734.7800581 2.3264259 0 1.1763161-.4088817 2.1859998-1.2261554 3.0305345-.8177633.8445346-1.808873 1.2663075-2.9733289 1.2663075-1.2756129 0-2.2481148-.4188061-2.9170158-1.2574073l-6.37365765-8.0300016v4.4278735c0 1.2638352-.21643797 2.2453348-.65029327 2.9459821-.79278978 1.2757022-1.94451402 1.9135533-3.45615208 1.9135533-1.37452804 0-2.44055851-.4687464-3.19613271-1.4072281-.70611664-.8633241-1.05868529-2.0075004-1.05868529-3.4335179v-16.41799104c0-1.35036542.35893447-2.46339089 1.07729308-3.33907641.7555742-.92562581 1.79614138-1.38893316 3.12170155-1.38893316 1.26386065 0 2.3166698.46330735 3.1594068 1.38893316.47058121.51324764.76732648 1.03193432.89170486 1.55754342.07394148.32485905.11115706.93106484.11115706 1.81960627z"/><path d="m224.234636 16.436352 1.954022 3.1892684c.541219.8880505.811342 1.801813.811342 2.7393096 0 1.1891768-.403242 2.1736471-1.207782 2.9553887s-1.791268 1.1728596-2.958726 1.1728596c-1.499768 0-2.636618-.6502152-3.410551-1.9516345l-3.46545-5.7787565v3.4716052c0 1.1881878-.384781 2.1949088-1.152397 3.0201629-.768103.8257486-1.736855 1.2386229-2.903827 1.2386229-1.425922 0-2.506901-.5191832-3.244882-1.5575497-.663649-.9127736-.994987-2.1138174-.994987-3.6021427v-15.77921431c0-3.23970333 1.714506-4.86004945 5.143033-4.86004945h5.272751c1.732968 0 3.34302.51028294 4.829671 1.52936544 1.487136 1.02007143 2.574917 2.34225804 3.263343 3.96853768.516441 1.22576687.774419 2.45746727.774419 3.69559564 0 2.3145683-.902679 4.4976101-2.709979 6.5486311zm-26.691206 1.9516344h3.771039c1.558068 0 2.717267.3253549 3.47711.9750756.895877.7763025 1.343816 1.7765955 1.343816 3.001868 0 1.2514788-.449396 2.2646277-1.346245 3.0399413-.700572.6007692-1.849568.9004121-3.446988.9004121h-6.471303c-1.524059 0-2.568601-.1186705-3.134111-.3560114-1.106243-.4628147-1.837423-1.2193388-2.193539-2.2705613-.222026-.6754326-.331824-1.782529-.331824-3.3212892v-13.92103289c0-1.16395935.036923-1.94520648.109798-2.34621372.135548-.81239813.461542-1.50068675.977983-2.06338247.589316-.63834814 1.339443-1.04479443 2.248924-1.22032781.429962-.07466349 1.302519-.11224247 2.61767-.11224247h4.959389c1.351588 0 2.138639.01285597 2.359693.03757898.885189.08751946 1.609566.35007783 2.175077.78767512 1.007618.77630253 1.511913 1.78895705 1.511913 3.0399414 0 1.35037084-.441622 2.38280377-1.324382 3.09630986-.785593.63735921-1.857827.95678051-3.219618.95678051h-4.084402v1.74445559h3.255084c.954663 0 1.746085.2566249 2.370867.7698746.661706.5498398.993044 1.3068583.993044 2.2695724 0 2.0391539-1.219928 3.0587309-3.658812 3.0587309h-2.960183zm-24.59192-9.83184685h-2.194024c-1.217013 0-2.224632-.33771633-3.023342-1.01314898-.848265-.72537314-1.272398-1.69500962-1.272398-2.90841498 0-.72537314.200163-1.42256204.599033-2.09206117.399355-.66900467.915796-1.14467539 1.548837-1.42602326.632555-.28184232 2.134752-.42226902 4.507077-.42226902h8.370425c2.051675 0 3.379458.12509844 3.981406.3752953.663648.27541434 1.201466.74811831 1.613453 1.41613406.411501.66999359.617494 1.37361047.617494 2.11134511 0 1.16297043-.45474 2.17661387-1.36422 3.0399414-.651503.61313067-1.714021.91920154-3.189011.91920154h-1.899609v12.75905135c0 1.3879498-.2332 2.4634008-.700086 3.2263529-.786565 1.2762018-1.923901 1.9140555-3.410551 1.9140555-1.486651 0-2.630303-.5819797-3.429013-1.7449501-.504295-.7253731-.755471-1.8260416-.755471-3.3020053zm-9.859019 7.88021245 1.954022 3.1892684c.540733.8880505.811342 1.801813.811342 2.7393096 0 1.1891768-.403242 2.1736471-1.207782 2.9553887-.805026.7817416-1.790782 1.1728596-2.95824 1.1728596-1.500254 0-2.636133-.6502152-3.411037-1.9516345l-3.466422-5.7787565v3.4716052c0 1.1881878-.383323 2.1949088-1.151426 3.0201629-.768588.8257486-1.736368 1.2386229-2.903826 1.2386229-1.425922 0-2.507387-.5191832-3.244396-1.5575497-.663649-.9127736-.995473-2.1138174-.995473-3.6021427v-15.77921431c0-3.23970333 1.714506-4.86004945 5.143519-4.86004945h5.272265c1.732968 0 3.34302.51028294 4.830157 1.52936544 1.487136 1.02007143 2.574917 2.34225804 3.263343 3.96853768.51547 1.22576687.773933 2.45746727.773933 3.69559564 0 2.3145683-.903165 4.4976101-2.709979 6.5486311zm-34.464542 6.5481366c-.394011.9503525-.799196 1.6574306-1.217013 2.1202454-.835634.9256295-1.849568 1.3884443-3.041804 1.3884443-1.462844 0-2.599209-.6002747-3.410065-1.8013186-.479518-.7130116-.719034-1.5130482-.719034-2.4015932 0-.7377347.171985-1.4828862.516441-2.2324879l7.871475-17.05591064c.761787-1.6628697 2.033699-2.4955407 3.815736-2.4955407 1.8073 0 3.103504.85689955 3.890069 2.57119311l7.946292 17.18595363c.319679.6887831.479032 1.3701493.479032 2.0455819 0 1.0007875-.320164 1.8888381-.959035 2.6641517-.835634 1.0141379-1.905439 1.5199707-3.207473 1.5199707-1.069319 0-1.960338-.3377163-2.673542-1.0136435-.528587-.4989103-1.056688-1.3315813-1.585274-2.4950462zm-20.168892-14.42834905h-2.194024c-1.216527 0-2.224632-.33771633-3.022856-1.01314898-.848265-.72537314-1.272884-1.69500962-1.272884-2.90841498 0-.72537314.200649-1.42256204.599519-2.09206117.399355-.66900467.915796-1.14467539 1.548837-1.42602326.633041-.28184232 2.135238-.42226902 4.507563-.42226902h8.369454c2.05216 0 3.379943.12509844 3.982377.3752953.663648.27541434 1.20098.74811831 1.612481 1.41613406.412473.66999359.61798 1.37361047.61798 2.11134511 0 1.16297043-.45474 2.17661387-1.36422 3.0399414-.651017.61313067-1.714507.91920154-3.189497.91920154h-1.899123v12.75905135c0 1.3879498-.232714 2.4634008-.700086 3.2263529-.78705 1.2762018-1.923415 1.9140555-3.410551 1.9140555-1.487137 0-2.630303-.5819797-3.429013-1.7449501-.503809-.7253731-.755957-1.8260416-.755957-3.3020053zm-22.1962748 8.06761285c.922112 0 1.9049531.4128743 2.949981 1.2386228 1.3020337 1.038861 2.1935382 1.5565608 2.6730559 1.5565608.7127177 0 1.0688336-.3743064 1.0688336-1.124897 0-.4128743-.2089084-.7629521-.6267252-1.0512224-.2210542-.1503159-1.4628446-.6304368-3.7239137-1.4448128-3.6991362-1.3251533-5.5487043-3.7771815-5.5487043-7.35509564 0-2.70123615.9765253-4.83384306 2.9310335-6.39732625 1.7077047-1.36322681 3.8220521-2.04558191 6.3415845-2.04558191 2.1755624 0 4.0683697.52857797 5.6784219 1.58523945 1.6095664 1.05715594 2.4150786 2.41791044 2.4150786 4.08127461 0 1.00078747-.304132 1.83593077-.9123956 2.50493544-.6087494.66900467-1.3987146 1.00325978-2.3694099 1.00325978-1.0202504 0-2.1512708-.4934713-3.3925753-1.48140281-.7734469-.61313066-1.3574188-.91969599-1.7509439-.91969599-.6757944 0-1.0139345.33771632-1.0139345 1.01265451 0 .63834814.8356336 1.22032781 2.5073866 1.7449501 2.3106241.73872361 4.0984914 1.63913561 5.3645734 2.70173061 1.6834132 1.4265177 2.5258482 3.4280927 2.5258482 6.0047248 0 2.8026005-.946403 4.9910814-2.8392108 6.5669261-1.7577455 1.4631078-4.0435921 2.1954034-6.8580255 2.1954034-2.8144335 0-5.1435192-.7624577-6.9872573-2.2893508-1.4745047-1.2129109-2.2119999-2.6325062-2.2119999-4.2592803 0-1.0883069.3624318-1.9946525 1.0877812-2.7205201.7248635-.7248787 1.622198-1.0942404 2.6915175-1.1070964z"/></g></svg>