<svg height="50" viewBox="0 0 59 50" width="59" xmlns="http://www.w3.org/2000/svg"><g fill="none" fill-rule="evenodd" transform=""><path d="m39.684105.06979758c-.3005481-.1465297-.5465494.00165826-.5465494.32969184v40.32370798l18.0987137 8.8284146c.9017989.4400414 1.6398029-.0049747 1.6398029-.9886232v-38.81589927c0-.19341318-.1120295-.37024378-.2894224-.4567747z" fill="#97a3d1"/><path d="m19.4013568 31.107864 19.4181895-30.78405145c.1761567-.27919034.5661739-.38773086.8668766-.2410504l18.7571382 9.14966441c.2336394.11381679.316773.39873566.1800198.61566595l-19.483862 30.88806949z" fill="#929dc5"/><path d="m2.61887188.93553659c-1.19851975-.58291342-1.604547-.15160842-.90216298.95833901l18.3984565 29.0784057 19.6755323 9.5682592-19.5483023-30.89560936c-.083177-.13138398-.2023975-.23759976-.3442605-.30666249z" fill="#97a3d1"/><path d="m19.8953488 48.8456679c0 .9801943-.7437178 1.4234975-1.6526891.9851516l-17.14086697-8.2660801c-.60603273-.2921805-1.10179273-1.0659707-1.10179273-1.7194336v-38.40003251c0-.65346287.49576-.94909849 1.10179273-.65676774l18.54824607 8.94478015c.1503011.07240669.24531.22067516.24531.382764z" fill="#929dc5"/></g></svg>