<svg height="34" viewBox="0 0 40 34" width="40" xmlns="http://www.w3.org/2000/svg"><path d="m123 101.2h3.91904c-.424534 3.797146-3.741153 6.601442-7.556038 6.388846-3.814885-.212597-6.79938-3.368042-6.79938-7.188846 0-3.8208045 2.984495-6.9762495 6.79938-7.1888457 3.814885-.2125963 7.131504 2.5916997 7.556038 6.3888457h-3.91904c-.441828 0-.8.3581722-.8.8 0 .441828.358172.8.8.8zm12-13.6v25.6c0 1.325483-1.074517 2.4-2.4 2.4h-.8v1.6c0 .883656-.716344 1.6-1.6 1.6h-3.2c-.883656 0-1.6-.716344-1.6-1.6v-1.6h-20.8v1.6c0 .883656-.716344 1.6-1.6 1.6h-3.2c-.8836556 0-1.6-.716344-1.6-1.6v-1.6h-.8c-1.3254834 0-2.4-1.074517-2.4-2.4v-25.6c0-1.3254834 1.0745166-2.4 2.4-2.4h35.2c1.325483 0 2.4 1.0745166 2.4 2.4zm-32 28h-3.2v1.6h3.2zm0-24.8c0-.4418278-.358172-.8-.8-.8s-.8.3581722-.8.8v2.4h-.8c-.441828 0-.8.3581722-.8.8s.358172.8.8.8h.8v4.8h-.8c-.441828 0-.8.3581722-.8.8 0 .441828.358172.8.8.8h.8v4.8h-.8c-.441828 0-.8.358172-.8.8s.358172.8.8.8h.8v2.4c0 .441828.358172.8.8.8s.8-.358172.8-.8zm25.6 9.6c0-4.8601058-3.939894-8.8-8.8-8.8s-8.8 3.9398942-8.8 8.8c0 4.860106 3.939894 8.8 8.8 8.8s8.8-3.939894 8.8-8.8zm1.6 15.2h-3.2v1.6h3.2z" fill="#1fdb84" transform="translate(-95 -85)"/></svg>