<svg height="31" viewBox="0 0 139 31" width="139" xmlns="http://www.w3.org/2000/svg"><g fill="#929dc5" fill-rule="evenodd" transform=""><path d="m66.6074872 24.1186422c0 .9274584.7692148 1.6863362 1.7089783 1.6863362.940032 0 1.7089782-.7588778 1.7089782-1.6863362 0-3.3896364 0-6.7689354 0-10.2023074 0-.9277234-.7689462-1.6866012-1.7089782-1.6866012-.9397635 0-1.7089783.7588778-1.7089783 1.6866012zm1.7089783-15.04078278c2.943106 0 5.350931 2.37629738 5.350931 5.28086698v9.2835961c0 2.9045696-2.407825 5.280867-5.350931 5.280867-2.9428375 0-5.350931-2.3762974-5.350931-5.280867v-9.2835961c0-2.9045696 2.4080935-5.28086698 5.350931-5.28086698zm-14.0153407 19.84533008h4.0327375v-10.5315167l4.7963121-15.69602063h-4.0327375l-2.7835692 9.86302563-2.7833006-9.86302563h-4.0330061l4.8035638 15.71961133zm28.9121629 0h3.5769562v-19.62400177h-3.5769562v14.95781777c-2.5740764 2.9594379-3.2224299.7480102-3.2224299-.3631374v-14.59468037h-3.5772248v15.29126817c0 2.4966363.6322387 4.0875495 2.2402306 4.3401554 1.0721737.1680504 2.6194665.0013253 4.5594241-2.3386583z"/><path d="m118.273704 24.889741v-11.7191561c.469076-.5259225 1.098567-.9788739 1.854177-.9305803 1.731099.110916 1.557961 2.2143407 1.557961 2.2143407s-.028764 7.7776561-.028764 9.2721039c0 1.4947132-.605981 2.0206357-1.61549 2.048232-.862645.0236161-1.577598-.6792944-1.767884-.8849402zm-3.68346 4.0617032h3.68346v-2.0880344c.700295.8284208 1.85307 2.3340133 4.075648 2.0880344 3.719415-.4115569 3.041247-5.1419406 3.041247-5.1419406s0-6.7534075 0-10.0747859-1.223579-4.64998278-3.387522-4.64998278c-1.768714 0-3.248404 1.49816268-3.729373 2.04504778v-8.43413053h-3.68346z"/><path d="m107.693922 28.9235689h3.506078v-19.48878629h-3.506078v14.85475379c-2.522807 2.9390464-3.158576.7428562-3.158576-.3606353v-14.49411849h-3.506078v15.18590659c0 2.4794337.619711 4.0593851 2.19584 4.3102504 1.050665.1668925 2.567298.0013162 4.468814-2.3225443z"/><path d="m92.5069811 28.9782609h4.1616476v-22.53151724h4.3606393v-3.75109149h-12.8829265v3.75109149h4.3606396z"/><path d="m135.308049 17.1806871v-2.8167171c0-.9451165-.779502-1.7182217-1.732439-1.7182217s-1.73244.7731052-1.73244 1.7182217v2.8167171zm-1.732439-7.74590449c2.98351 0 5.42439 2.42084829 5.42439 5.37987289v5.4079564h-7.15683v4.5349389c0 .9448464.779503 1.7179517 1.73244 1.7179517s1.732439-.7731053 1.732439-1.7179517v-2.2250742h3.691951v1.7398244c0 2.9590246-2.44088 5.3798729-5.42439 5.3798729s-5.42439-2.4208483-5.42439-5.3798729v-9.4576455c0-2.9590246 2.44088-5.37987289 5.42439-5.37987289z"/><path d="m18.5417167 22.3584509v-13.30545108l11.632494 6.44688418zm27.554011-8.4905293c-.069943-5.04885045-.5443625-10.12328276-2.6697616-11.99787686-.8206101-.7236756-1.6002846-1.17755523-4.7184404-1.45974652-3.9018967-.35287097-9.1861162-.40245225-13.1809991-.40851804-1.6485398-.00237357-3.2976218-.00237357-4.9461617 0-3.9946118.00632952-9.2791024.05564707-13.18099906.40851804-3.11788467.28219129-3.89783025.73607092-4.71816927 1.45974652-2.16226833 1.90703291-2.61581333 7.12493444-2.67355696 12.25896976-.01057278.9568131-.01030168 1.9154723.00162658 2.8722854.06397885 5.0918385.52809663 10.2377417 2.67193038 12.128687.82033902.7236756 1.6002846 1.1775553 4.71816927 1.4594828 3.90189666.352871 9.18638726.4024523 13.18099906.4085181 1.6485399.0026373 3.2976219.0026373 4.9461617.0002637 3.9948829-.0063295 9.2791024-.0559108 13.1809991-.4087818 3.1181558-.2819275 3.8978303-.7358072 4.7184404-1.4594828 2.1253991-1.8745941 2.5998186-6.9490264 2.6697616-11.9981406.0154525-1.0868321.0154525-2.1768289 0-3.2639247z"/></g></svg>